<svg xmlns="http://www.w3.org/2000/svg" width="18.869" height="22" viewBox="0 0 18.869 22">
  <path id="Tracé_286" data-name="Tracé 286" d="M20,9.5V6.8a7.453,7.453,0,0,0-.327-3.162,3,3,0,0,0-1.311-1.311A7.453,7.453,0,0,0,15.2,2H8.8a7.453,7.453,0,0,0-3.162.327A3,3,0,0,0,4.327,3.638,7.453,7.453,0,0,0,4,6.8V17.2a7.453,7.453,0,0,0,.327,3.162,3,3,0,0,0,1.311,1.311A7.453,7.453,0,0,0,8.8,22H14m0-11H8m2,4H8m8-8H8m8.5,8a2.248,2.248,0,0,1,4.369.75c0,1.5-2.248,2.248-2.248,2.248m.029,3h.01" transform="translate(-3 -1)" fill="none" stroke="#0086c9" stroke-linecap="round" stroke-linejoin="round" stroke-width="2"/>
</svg>
